<mxfile host="app.diagrams.net" modified="2021-12-07T08:53:30.204Z" agent="5.0 (Windows NT 10.0; Win64; x64) AppleWebKit/537.36 (KHTML, like Gecko) Chrome/96.0.4664.45 Safari/537.36" etag="VUl3W99yo4pcpuvYoaDv" version="14.6.13" type="github">
  <diagram name="Page-1" id="9f46799a-70d6-7492-0946-bef42562c5a5">
    <mxGraphModel dx="1422" dy="762" grid="1" gridSize="10" guides="1" tooltips="1" connect="1" arrows="1" fold="1" page="1" pageScale="1" pageWidth="1100" pageHeight="850" background="none" math="0" shadow="0">
      <root>
        <mxCell id="0" />
        <mxCell id="1" parent="0" />
        <mxCell id="Mzs79qKyCSIvJTveCNPv-1" value="4" style="ellipse;whiteSpace=wrap;html=1;aspect=fixed;fillColor=#dae8fc;strokeColor=none;" vertex="1" parent="1">
          <mxGeometry x="220" y="220" width="30" height="30" as="geometry" />
        </mxCell>
        <mxCell id="Mzs79qKyCSIvJTveCNPv-4" value="1,2,3" style="rounded=1;whiteSpace=wrap;html=1;" vertex="1" parent="1">
          <mxGeometry x="130" y="290" width="100" height="30" as="geometry" />
        </mxCell>
        <mxCell id="Mzs79qKyCSIvJTveCNPv-6" value="" style="endArrow=classic;html=1;exitX=0;exitY=1;exitDx=0;exitDy=0;entryX=0.5;entryY=0;entryDx=0;entryDy=0;" edge="1" parent="1" source="Mzs79qKyCSIvJTveCNPv-1" target="Mzs79qKyCSIvJTveCNPv-4">
          <mxGeometry width="50" height="50" relative="1" as="geometry">
            <mxPoint x="320" y="280" as="sourcePoint" />
            <mxPoint x="370" y="230" as="targetPoint" />
          </mxGeometry>
        </mxCell>
        <mxCell id="Mzs79qKyCSIvJTveCNPv-7" value="" style="shape=flexArrow;endArrow=classic;html=1;width=10;endSize=8.67;endWidth=6;" edge="1" parent="1">
          <mxGeometry width="50" height="50" relative="1" as="geometry">
            <mxPoint x="270" y="270" as="sourcePoint" />
            <mxPoint x="330" y="270" as="targetPoint" />
          </mxGeometry>
        </mxCell>
        <mxCell id="Mzs79qKyCSIvJTveCNPv-8" value="3" style="ellipse;whiteSpace=wrap;html=1;aspect=fixed;fillColor=#dae8fc;strokeColor=none;" vertex="1" parent="1">
          <mxGeometry x="410" y="220" width="30" height="30" as="geometry" />
        </mxCell>
        <mxCell id="Mzs79qKyCSIvJTveCNPv-9" value="1,2" style="rounded=1;whiteSpace=wrap;html=1;" vertex="1" parent="1">
          <mxGeometry x="320" y="290" width="100" height="30" as="geometry" />
        </mxCell>
        <mxCell id="Mzs79qKyCSIvJTveCNPv-10" value="" style="endArrow=classic;html=1;exitX=0;exitY=1;exitDx=0;exitDy=0;entryX=0.5;entryY=0;entryDx=0;entryDy=0;" edge="1" parent="1" source="Mzs79qKyCSIvJTveCNPv-8" target="Mzs79qKyCSIvJTveCNPv-9">
          <mxGeometry width="50" height="50" relative="1" as="geometry">
            <mxPoint x="510" y="280" as="sourcePoint" />
            <mxPoint x="560" y="230" as="targetPoint" />
          </mxGeometry>
        </mxCell>
        <mxCell id="Mzs79qKyCSIvJTveCNPv-11" value="4" style="ellipse;whiteSpace=wrap;html=1;aspect=fixed;fillColor=#dae8fc;strokeColor=none;" vertex="1" parent="1">
          <mxGeometry x="450" y="260" width="30" height="30" as="geometry" />
        </mxCell>
        <mxCell id="Mzs79qKyCSIvJTveCNPv-13" value="" style="endArrow=classic;html=1;exitX=1;exitY=1;exitDx=0;exitDy=0;entryX=0;entryY=0;entryDx=0;entryDy=0;" edge="1" parent="1" source="Mzs79qKyCSIvJTveCNPv-8" target="Mzs79qKyCSIvJTveCNPv-11">
          <mxGeometry width="50" height="50" relative="1" as="geometry">
            <mxPoint x="424.3933982822018" y="255.60660171779818" as="sourcePoint" />
            <mxPoint x="380" y="300" as="targetPoint" />
          </mxGeometry>
        </mxCell>
        <mxCell id="Mzs79qKyCSIvJTveCNPv-15" value="" style="shape=flexArrow;endArrow=classic;html=1;width=10;endSize=8.67;endWidth=6;" edge="1" parent="1">
          <mxGeometry width="50" height="50" relative="1" as="geometry">
            <mxPoint x="490" y="274.5" as="sourcePoint" />
            <mxPoint x="550" y="274.5" as="targetPoint" />
          </mxGeometry>
        </mxCell>
        <mxCell id="Mzs79qKyCSIvJTveCNPv-16" value="2" style="ellipse;whiteSpace=wrap;html=1;aspect=fixed;fillColor=#dae8fc;strokeColor=none;" vertex="1" parent="1">
          <mxGeometry x="610" y="220" width="30" height="30" as="geometry" />
        </mxCell>
        <mxCell id="Mzs79qKyCSIvJTveCNPv-18" value="" style="endArrow=classic;html=1;exitX=0;exitY=1;exitDx=0;exitDy=0;" edge="1" parent="1" source="Mzs79qKyCSIvJTveCNPv-16">
          <mxGeometry width="50" height="50" relative="1" as="geometry">
            <mxPoint x="710" y="280" as="sourcePoint" />
            <mxPoint x="590" y="270" as="targetPoint" />
          </mxGeometry>
        </mxCell>
        <mxCell id="Mzs79qKyCSIvJTveCNPv-20" value="" style="endArrow=classic;html=1;exitX=1;exitY=1;exitDx=0;exitDy=0;entryX=0.5;entryY=0;entryDx=0;entryDy=0;" edge="1" parent="1" source="Mzs79qKyCSIvJTveCNPv-16" target="Mzs79qKyCSIvJTveCNPv-24">
          <mxGeometry width="50" height="50" relative="1" as="geometry">
            <mxPoint x="624.3933982822018" y="255.60660171779818" as="sourcePoint" />
            <mxPoint x="654.3933982822018" y="264.3933982822018" as="targetPoint" />
          </mxGeometry>
        </mxCell>
        <mxCell id="Mzs79qKyCSIvJTveCNPv-21" value="" style="shape=flexArrow;endArrow=classic;html=1;width=10;endSize=8.67;endWidth=6;" edge="1" parent="1">
          <mxGeometry width="50" height="50" relative="1" as="geometry">
            <mxPoint x="720" y="274.5" as="sourcePoint" />
            <mxPoint x="780" y="274.5" as="targetPoint" />
          </mxGeometry>
        </mxCell>
        <mxCell id="Mzs79qKyCSIvJTveCNPv-24" value="3,4" style="rounded=1;whiteSpace=wrap;html=1;" vertex="1" parent="1">
          <mxGeometry x="620" y="290" width="100" height="30" as="geometry" />
        </mxCell>
        <mxCell id="Mzs79qKyCSIvJTveCNPv-26" value="1" style="ellipse;whiteSpace=wrap;html=1;aspect=fixed;fillColor=#dae8fc;strokeColor=none;" vertex="1" parent="1">
          <mxGeometry x="570" y="270" width="30" height="30" as="geometry" />
        </mxCell>
        <mxCell id="Mzs79qKyCSIvJTveCNPv-27" value="1" style="ellipse;whiteSpace=wrap;html=1;aspect=fixed;fillColor=#dae8fc;strokeColor=none;" vertex="1" parent="1">
          <mxGeometry x="800" y="220" width="30" height="30" as="geometry" />
        </mxCell>
        <mxCell id="Mzs79qKyCSIvJTveCNPv-29" value="" style="endArrow=classic;html=1;exitX=1;exitY=1;exitDx=0;exitDy=0;entryX=0.5;entryY=0;entryDx=0;entryDy=0;" edge="1" parent="1" source="Mzs79qKyCSIvJTveCNPv-27" target="Mzs79qKyCSIvJTveCNPv-30">
          <mxGeometry width="50" height="50" relative="1" as="geometry">
            <mxPoint x="814.3933982822018" y="255.60660171779818" as="sourcePoint" />
            <mxPoint x="844.3933982822018" y="264.3933982822018" as="targetPoint" />
          </mxGeometry>
        </mxCell>
        <mxCell id="Mzs79qKyCSIvJTveCNPv-30" value="2,3,4" style="rounded=1;whiteSpace=wrap;html=1;" vertex="1" parent="1">
          <mxGeometry x="810" y="290" width="100" height="30" as="geometry" />
        </mxCell>
        <mxCell id="Mzs79qKyCSIvJTveCNPv-32" value="" style="shape=flexArrow;endArrow=classic;html=1;" edge="1" parent="1">
          <mxGeometry width="50" height="50" relative="1" as="geometry">
            <mxPoint x="179.5" y="380" as="sourcePoint" />
            <mxPoint x="179.5" y="330" as="targetPoint" />
            <Array as="points">
              <mxPoint x="179.5" y="380" />
            </Array>
          </mxGeometry>
        </mxCell>
        <mxCell id="Mzs79qKyCSIvJTveCNPv-33" value="2" style="ellipse;whiteSpace=wrap;html=1;aspect=fixed;fillColor=#dae8fc;strokeColor=none;" vertex="1" parent="1">
          <mxGeometry x="160" y="390" width="30" height="30" as="geometry" />
        </mxCell>
        <mxCell id="Mzs79qKyCSIvJTveCNPv-34" value="" style="endArrow=classic;html=1;exitX=0;exitY=1;exitDx=0;exitDy=0;" edge="1" parent="1" source="Mzs79qKyCSIvJTveCNPv-33">
          <mxGeometry width="50" height="50" relative="1" as="geometry">
            <mxPoint x="260" y="450" as="sourcePoint" />
            <mxPoint x="140" y="440" as="targetPoint" />
          </mxGeometry>
        </mxCell>
        <mxCell id="Mzs79qKyCSIvJTveCNPv-35" value="" style="endArrow=classic;html=1;exitX=1;exitY=1;exitDx=0;exitDy=0;" edge="1" parent="1" source="Mzs79qKyCSIvJTveCNPv-33">
          <mxGeometry width="50" height="50" relative="1" as="geometry">
            <mxPoint x="174.39339828220182" y="425.6066017177982" as="sourcePoint" />
            <mxPoint x="210" y="440" as="targetPoint" />
          </mxGeometry>
        </mxCell>
        <mxCell id="Mzs79qKyCSIvJTveCNPv-37" value="1" style="ellipse;whiteSpace=wrap;html=1;aspect=fixed;fillColor=#dae8fc;strokeColor=none;" vertex="1" parent="1">
          <mxGeometry x="120" y="440" width="30" height="30" as="geometry" />
        </mxCell>
        <mxCell id="Mzs79qKyCSIvJTveCNPv-38" value="3" style="ellipse;whiteSpace=wrap;html=1;aspect=fixed;fillColor=#dae8fc;strokeColor=none;" vertex="1" parent="1">
          <mxGeometry x="200" y="440" width="30" height="30" as="geometry" />
        </mxCell>
        <mxCell id="Mzs79qKyCSIvJTveCNPv-45" value="1" style="ellipse;whiteSpace=wrap;html=1;aspect=fixed;fillColor=#dae8fc;strokeColor=none;" vertex="1" parent="1">
          <mxGeometry x="300" y="390" width="30" height="30" as="geometry" />
        </mxCell>
        <mxCell id="Mzs79qKyCSIvJTveCNPv-47" value="" style="endArrow=classic;html=1;exitX=1;exitY=1;exitDx=0;exitDy=0;entryX=0.5;entryY=0;entryDx=0;entryDy=0;" edge="1" parent="1" source="Mzs79qKyCSIvJTveCNPv-45" target="Mzs79qKyCSIvJTveCNPv-48">
          <mxGeometry width="50" height="50" relative="1" as="geometry">
            <mxPoint x="354.3933982822018" y="410.6066017177982" as="sourcePoint" />
            <mxPoint x="384.3933982822018" y="419.3933982822018" as="targetPoint" />
          </mxGeometry>
        </mxCell>
        <mxCell id="Mzs79qKyCSIvJTveCNPv-48" value="2,3" style="rounded=1;whiteSpace=wrap;html=1;" vertex="1" parent="1">
          <mxGeometry x="310" y="440" width="100" height="30" as="geometry" />
        </mxCell>
        <mxCell id="Mzs79qKyCSIvJTveCNPv-50" value="3" style="ellipse;whiteSpace=wrap;html=1;aspect=fixed;fillColor=#dae8fc;strokeColor=none;" vertex="1" parent="1">
          <mxGeometry x="505" y="390" width="30" height="30" as="geometry" />
        </mxCell>
        <mxCell id="Mzs79qKyCSIvJTveCNPv-51" value="" style="endArrow=classic;html=1;exitX=0;exitY=1;exitDx=0;exitDy=0;entryX=0.5;entryY=0;entryDx=0;entryDy=0;" edge="1" parent="1" source="Mzs79qKyCSIvJTveCNPv-50" target="Mzs79qKyCSIvJTveCNPv-53">
          <mxGeometry width="50" height="50" relative="1" as="geometry">
            <mxPoint x="600" y="420" as="sourcePoint" />
            <mxPoint x="480" y="410" as="targetPoint" />
          </mxGeometry>
        </mxCell>
        <mxCell id="Mzs79qKyCSIvJTveCNPv-53" value="1,2" style="rounded=1;whiteSpace=wrap;html=1;" vertex="1" parent="1">
          <mxGeometry x="440" y="440" width="100" height="30" as="geometry" />
        </mxCell>
        <mxCell id="Mzs79qKyCSIvJTveCNPv-55" value="" style="shape=flexArrow;endArrow=classic;html=1;" edge="1" parent="1">
          <mxGeometry width="50" height="50" relative="1" as="geometry">
            <mxPoint x="359.5" y="530" as="sourcePoint" />
            <mxPoint x="359.5" y="480" as="targetPoint" />
            <Array as="points">
              <mxPoint x="359.5" y="480" />
            </Array>
          </mxGeometry>
        </mxCell>
        <mxCell id="Mzs79qKyCSIvJTveCNPv-56" value="2" style="ellipse;whiteSpace=wrap;html=1;aspect=fixed;fillColor=#dae8fc;strokeColor=none;" vertex="1" parent="1">
          <mxGeometry x="340" y="550" width="30" height="30" as="geometry" />
        </mxCell>
        <mxCell id="Mzs79qKyCSIvJTveCNPv-58" value="" style="endArrow=classic;html=1;exitX=1;exitY=1;exitDx=0;exitDy=0;" edge="1" parent="1" source="Mzs79qKyCSIvJTveCNPv-56">
          <mxGeometry width="50" height="50" relative="1" as="geometry">
            <mxPoint x="354.3933982822018" y="585.6066017177982" as="sourcePoint" />
            <mxPoint x="390" y="600" as="targetPoint" />
          </mxGeometry>
        </mxCell>
        <mxCell id="Mzs79qKyCSIvJTveCNPv-60" value="3" style="ellipse;whiteSpace=wrap;html=1;aspect=fixed;fillColor=#dae8fc;strokeColor=none;" vertex="1" parent="1">
          <mxGeometry x="380" y="600" width="30" height="30" as="geometry" />
        </mxCell>
        <mxCell id="Mzs79qKyCSIvJTveCNPv-61" value="3" style="ellipse;whiteSpace=wrap;html=1;aspect=fixed;fillColor=#dae8fc;strokeColor=none;" vertex="1" parent="1">
          <mxGeometry x="480" y="550" width="30" height="30" as="geometry" />
        </mxCell>
        <mxCell id="Mzs79qKyCSIvJTveCNPv-62" value="" style="endArrow=classic;html=1;exitX=0;exitY=1;exitDx=0;exitDy=0;" edge="1" parent="1" source="Mzs79qKyCSIvJTveCNPv-61">
          <mxGeometry width="50" height="50" relative="1" as="geometry">
            <mxPoint x="580" y="610" as="sourcePoint" />
            <mxPoint x="460" y="600" as="targetPoint" />
          </mxGeometry>
        </mxCell>
        <mxCell id="Mzs79qKyCSIvJTveCNPv-64" value="2" style="ellipse;whiteSpace=wrap;html=1;aspect=fixed;fillColor=#dae8fc;strokeColor=none;" vertex="1" parent="1">
          <mxGeometry x="440" y="600" width="30" height="30" as="geometry" />
        </mxCell>
        <mxCell id="Mzs79qKyCSIvJTveCNPv-66" value="" style="rounded=0;whiteSpace=wrap;html=1;fillColor=none;" vertex="1" parent="1">
          <mxGeometry x="30" y="210" width="960" height="120" as="geometry" />
        </mxCell>
        <mxCell id="Mzs79qKyCSIvJTveCNPv-72" value="" style="rounded=0;whiteSpace=wrap;html=1;fillColor=none;" vertex="1" parent="1">
          <mxGeometry x="70" y="380" width="520" height="100" as="geometry" />
        </mxCell>
        <mxCell id="Mzs79qKyCSIvJTveCNPv-73" value="" style="rounded=0;whiteSpace=wrap;html=1;fillColor=none;" vertex="1" parent="1">
          <mxGeometry x="280" y="530" width="280" height="130" as="geometry" />
        </mxCell>
      </root>
    </mxGraphModel>
  </diagram>
</mxfile>
